<svg xmlns="http://www.w3.org/2000/svg" xmlns:xlink="http://www.w3.org/1999/xlink" width="360.908" height="309.544" viewBox="0 0 360.908 309.544">
  <defs>
    <clipPath id="clip-path">
      <rect width="112.739" height="103" fill="none"/>
    </clipPath>
  </defs>
  <g id="illo-2" transform="translate(-179.919 -989.956)">
    <circle id="Ellipse_37" data-name="Ellipse 37" cx="154" cy="154" r="154" transform="translate(193.538 991.5)" fill="#f2f2f2"/>
    <g id="Rectangle_2657" data-name="Rectangle 2657" transform="matrix(0.883, -0.469, 0.469, 0.883, 179.919, 1077.177)" fill="#2f7879" stroke="#2f7879" stroke-width="3">
      <rect width="158" height="188" stroke="none"/>
      <rect x="1.5" y="1.5" width="155" height="185" fill="none"/>
    </g>
    <g id="bottom_paper" data-name="bottom paper" transform="matrix(0.883, -0.469, 0.469, 0.883, 185.439, 1064.133)" fill="#fff" stroke="#2f7879" stroke-width="3">
      <rect width="158" height="188" stroke="none"/>
      <rect x="1.5" y="1.5" width="155" height="185" fill="none"/>
    </g>
    <g id="Group_1578" data-name="Group 1578" transform="translate(-597.142 465.053) rotate(-28)">
      <line id="Line_1536" data-name="Line 1536" x2="68.632" y2="0.044" transform="translate(430.203 949.687)" fill="none" stroke="#2f7879" stroke-linecap="round" stroke-width="2"/>
      <line id="Line_1537" data-name="Line 1537" x2="53.95" transform="translate(430.671 989.687)" fill="none" stroke="#2f7879" stroke-linecap="round" stroke-width="2"/>
      <line id="Line_1535" data-name="Line 1535" x2="61.469" transform="translate(430.202 969.687)" fill="none" stroke="#2f7879" stroke-linecap="round" stroke-width="2"/>
    </g>
    <g id="top_paper" data-name="top paper" transform="translate(280.244 1052.874)" fill="#2f7879" stroke="#2f7879" stroke-width="3">
      <rect width="170" height="203" stroke="none"/>
      <rect x="1.5" y="1.5" width="167" height="200" fill="none"/>
    </g>
    <g id="top_paper-2" data-name="top paper" transform="translate(288.802 1044)" fill="#fff" stroke="#2f7879" stroke-width="3">
      <rect width="170" height="203" stroke="none"/>
      <rect x="1.5" y="1.5" width="167" height="200" fill="none"/>
    </g>
    <g id="Repeat_Grid_1" data-name="Repeat Grid 1" transform="translate(317.933 1125)" clip-path="url(#clip-path)">
      <g transform="translate(-487.131 -1120)">
        <line id="Line_1533" data-name="Line 1533" x2="62.703" transform="translate(527.428 1125.461)" fill="none" stroke="#2f7879" stroke-linecap="round" stroke-width="2"/>
        <line id="Line_1534" data-name="Line 1534" x2="71.442" transform="translate(527.428 1135.461)" fill="none" stroke="#2f7879" stroke-linecap="round" stroke-width="2"/>
        <g id="Rectangle_2656" data-name="Rectangle 2656" transform="translate(490.198 1124)" fill="#fff" stroke="#2f7879" stroke-width="2">
          <rect width="14" height="14" stroke="none"/>
          <rect x="1" y="1" width="12" height="12" fill="none"/>
        </g>
      </g>
      <g transform="translate(-487.131 -1081)">
        <line id="Line_1533-2" data-name="Line 1533" x2="62.703" transform="translate(527.428 1125.461)" fill="none" stroke="#2f7879" stroke-linecap="round" stroke-width="2"/>
        <line id="Line_1534-2" data-name="Line 1534" x2="71.442" transform="translate(527.428 1135.461)" fill="none" stroke="#2f7879" stroke-linecap="round" stroke-width="2"/>
        <g id="Rectangle_2656-2" data-name="Rectangle 2656" transform="translate(490.198 1124)" fill="#fff" stroke="#2f7879" stroke-width="2">
          <rect width="14" height="14" stroke="none"/>
          <rect x="1" y="1" width="12" height="12" fill="none"/>
        </g>
      </g>
      <g transform="translate(-487.131 -1042)">
        <line id="Line_1533-3" data-name="Line 1533" x2="62.703" transform="translate(527.428 1125.461)" fill="none" stroke="#2f7879" stroke-linecap="round" stroke-width="2"/>
        <line id="Line_1534-3" data-name="Line 1534" x2="71.442" transform="translate(527.428 1135.461)" fill="none" stroke="#2f7879" stroke-linecap="round" stroke-width="2"/>
        <g id="Rectangle_2656-3" data-name="Rectangle 2656" transform="translate(490.198 1124)" fill="#fff" stroke="#2f7879" stroke-width="2">
          <rect width="14" height="14" stroke="none"/>
          <rect x="1" y="1" width="12" height="12" fill="none"/>
        </g>
      </g>
    </g>
    <g id="Group_1577" data-name="Group 1577" transform="translate(-166.198 -46.313)">
      <circle id="Ellipse_47" data-name="Ellipse 47" cx="20.148" cy="20.148" r="20.148" transform="translate(474.131 1111)" fill="#2f7879"/>
      <g id="Ellipse_48" data-name="Ellipse 48" transform="translate(496.131 1129)" fill="none" stroke="#2f7879" stroke-width="2">
        <circle cx="13.148" cy="13.148" r="13.148" stroke="none"/>
        <circle cx="13.148" cy="13.148" r="12.148" fill="none"/>
      </g>
      <line id="Line_1533-4" data-name="Line 1533" x2="53.95" transform="translate(538.4 1129)" fill="none" stroke="#2f7879" stroke-linecap="round" stroke-width="3"/>
      <line id="Line_1534-4" data-name="Line 1534" x2="61.469" transform="translate(538.4 1139)" fill="none" stroke="#2f7879" stroke-linecap="round" stroke-width="3"/>
    </g>
    <rect id="Rectangle_2655" data-name="Rectangle 2655" width="55" height="12.916" rx="3" transform="matrix(0.883, -0.469, 0.469, 0.883, 209.538, 1069.821)" fill="#2f7879"/>
    <path id="Path_14628" data-name="Path 14628" d="M14217.857,12758.125l4.032,4.032,10.461-10.461" transform="translate(-13892.911 -11623)" fill="none" stroke="#2f7879" stroke-linecap="round" stroke-width="2"/>
    <g id="Group_1579" data-name="Group 1579" transform="translate(-486.255 615.982)">
      <g id="Group_1412" data-name="Group 1412" transform="translate(688.428 590.473)">
        <path id="Path_14410" data-name="Path 14410" d="M743.388,355.5a18.98,18.98,0,1,1-37.96,0V331.41a18.98,18.98,0,1,1,37.96,0Z" transform="translate(-705.428 -312.429)" fill="none" stroke="#2f7879" stroke-width="1.5"/>
        <line id="Line_1112" data-name="Line 1112" y2="17.795" transform="translate(18.981 9.491)" fill="none" stroke="#2f7879" stroke-width="1.5"/>
      </g>
      <g id="Group_1413" data-name="Group 1413" transform="translate(964.217 475.901)">
        <line id="Line_1113" data-name="Line 1113" x2="2.389" transform="translate(38.225 45.387)" fill="none" stroke="#2f7879" stroke-width="1.5"/>
        <line id="Line_1114" data-name="Line 1114" x2="2.389" transform="translate(40.614 38.22)" fill="none" stroke="#2f7879" stroke-width="1.5"/>
        <line id="Line_1115" data-name="Line 1115" x1="2.389" transform="translate(28.669 45.387)" fill="none" stroke="#2f7879" stroke-width="1.5"/>
        <line id="Line_1116" data-name="Line 1116" x2="2.389" transform="translate(31.058 38.22)" fill="none" stroke="#2f7879" stroke-width="1.5"/>
        <line id="Line_1117" data-name="Line 1117" x2="4.778" transform="translate(47.781 45.387)" fill="none" stroke="#2f7879" stroke-width="1.5"/>
        <line id="Line_1118" data-name="Line 1118" x2="2.389" transform="translate(50.17 52.554)" fill="none" stroke="#2f7879" stroke-width="1.5"/>
        <line id="Line_1119" data-name="Line 1119" x1="2.389" transform="translate(50.17 38.22)" fill="none" stroke="#2f7879" stroke-width="1.5"/>
        <line id="Line_1120" data-name="Line 1120" x2="21.502" transform="translate(21.502 52.554)" fill="none" stroke="#2f7879" stroke-width="1.5"/>
        <rect id="Rectangle_2031" data-name="Rectangle 2031" width="62.116" height="33.447" transform="translate(0 28.67)" fill="none" stroke="#2f7879" stroke-width="1.5"/>
        <path id="Path_14411" data-name="Path 14411" d="M755.79,341.084v-4.778a4.78,4.78,0,0,0-4.778-4.778H739.066a4.777,4.777,0,0,1-4.778-4.778h0a4.778,4.778,0,0,1,4.778-4.778h33.447a4.778,4.778,0,0,0,4.778-4.778h0a4.78,4.78,0,0,0-4.778-4.778H755.79" transform="translate(-725.001 -312.415)" fill="none" stroke="#2f7879" stroke-width="1.5"/>
      </g>
    </g>
  </g>
</svg>
