<svg id="logo_-_light_-_stacked" data-name="logo - light - stacked" xmlns="http://www.w3.org/2000/svg" width="332.958" height="106.772" viewBox="0 0 332.958 106.772">
  <g id="Layer_1" data-name="Layer 1">
    <path id="Path_14366" data-name="Path 14366" d="M27.984,37.469l5.01,5.21A17.719,17.719,0,0,1,20.01,48.366a16.56,16.56,0,1,1,0-33.116,17.928,17.928,0,0,1,13.226,5.695L28.1,26.389a10.308,10.308,0,0,0-7.9-3.833c-4.835,0-8.567,4.041-8.567,9.31s3.8,9.185,8.751,9.185a9.9,9.9,0,0,0,7.6-3.582Z" transform="translate(-0.521 -2.516)" fill="#d2e9f6"/>
    <path id="Path_14367" data-name="Path 14367" d="M57.867,15.25c9.552,0,17.026,7.281,17.026,16.592S67.378,48.366,57.867,48.366,40.85,41.143,40.85,31.842,48.323,15.25,57.867,15.25Zm8.818,16.592c0-5.269-3.858-9.285-8.818-9.285s-8.809,4.016-8.809,9.285,3.849,9.243,8.809,9.243A8.956,8.956,0,0,0,66.685,31.842Z" transform="translate(-6.715 -2.516)" fill="#d2e9f6"/>
    <path id="Path_14368" data-name="Path 14368" d="M87.78,15.878h8.35v2.505a13.711,13.711,0,0,1,8.943-3.123c7.406,0,12.609,5.2,12.609,12.675V47.758h-8.35V29.146c0-4.041-2.572-6.68-6.613-6.68a7.665,7.665,0,0,0-6.555,3.181V47.758h-8.35Z" transform="translate(-14.458 -2.517)" fill="#d2e9f6"/>
    <path id="Path_14369" data-name="Path 14369" d="M133.7,21.036H127.15V14.013H133.7V5.855l8.35-1.9V14.013h9.1v7.039H142.1V35.181c0,3,1.161,4.1,4.409,4.1a12.875,12.875,0,0,0,4.467-.735V45.41a26.411,26.411,0,0,1-6.488.977c-7.106,0-10.772-3.248-10.772-9.494Z" transform="translate(-20.954 -0.653)" fill="#d2e9f6"/>
    <path id="Path_14370" data-name="Path 14370" d="M160.89,15.854h8.35v3.49a10.154,10.154,0,0,1,8.517-4.225,7.331,7.331,0,0,1,3.482.735V23.2a10.688,10.688,0,0,0-4.284-.835,8.442,8.442,0,0,0-7.715,4.768v20.6h-8.35Z" transform="translate(-26.521 -2.494)" fill="#d2e9f6"/>
    <path id="Path_14371" data-name="Path 14371" d="M190,4.776a4.776,4.776,0,1,1,4.776,4.776A4.776,4.776,0,0,1,190,4.776Zm9,40.464H190.61V13.36H199Z" transform="translate(-31.324 0)" fill="#d2e9f6"/>
    <path id="Path_14372" data-name="Path 14372" d="M225.706,45.775a16.257,16.257,0,0,1-8.818-2.572v2.146H208.63V2.5L216.98.66V15.974a14.788,14.788,0,0,1,8.943-2.939,16.174,16.174,0,0,1,16.249,16.4,16.216,16.216,0,0,1-16.466,16.341ZM217.013,23.23V35.755a10.746,10.746,0,0,0,7.59,2.939,9.243,9.243,0,1,0,0-18.487,10.262,10.262,0,0,0-7.59,2.981Z" transform="translate(-34.398 -0.109)" fill="#d2e9f6"/>
    <path id="Path_14373" data-name="Path 14373" d="M263.062,34.537c0,4.1,2.63,6.73,6.613,6.73a7.69,7.69,0,0,0,6.613-3.181V16h8.35V47.9h-8.35V45.309a13.561,13.561,0,0,1-9,3.181c-7.406,0-12.617-5.261-12.617-12.734V16h8.392Z" transform="translate(-41.994 -2.64)" fill="#d2e9f6"/>
    <path id="Path_14374" data-name="Path 14374" d="M302.365,21.042H295.81V14.02h6.555V5.862L310.748,4V14.02h9.06v7.039h-9.06V35.187c0,3,1.161,4.1,4.409,4.1a12.876,12.876,0,0,0,4.467-.735v6.864a26.351,26.351,0,0,1-6.488.977c-7.1,0-10.772-3.248-10.772-9.494Z" transform="translate(-48.782 -0.66)" fill="#d2e9f6"/>
    <path id="Path_14375" data-name="Path 14375" d="M344.437,15.25c9.552,0,17.017,7.281,17.017,16.592s-7.465,16.525-17.017,16.525S327.42,41.143,327.42,31.842,334.885,15.25,344.437,15.25Zm8.818,16.592c0-5.269-3.858-9.31-8.818-9.31s-8.818,4.041-8.818,9.31,3.858,9.243,8.818,9.243a8.957,8.957,0,0,0,8.818-9.243Z" transform="translate(-53.998 -2.516)" fill="#d2e9f6"/>
    <path id="Path_14376" data-name="Path 14376" d="M374.35,15.854h8.35v3.49a10.145,10.145,0,0,1,8.509-4.225,7.373,7.373,0,0,1,3.49.735V23.2a10.713,10.713,0,0,0-4.284-.835,8.434,8.434,0,0,0-7.715,4.768v20.6h-8.35Z" transform="translate(-61.741 -2.494)" fill="#d2e9f6"/>
    <path id="Path_14377" data-name="Path 14377" d="M140.784,111.262H134.63V68.143l6.154-1.353Z" transform="translate(-22.188 -11.02)" fill="#fff"/>
    <path id="Path_14378" data-name="Path 14378" d="M149.91,71.124A3.783,3.783,0,1,1,151,73.812,3.791,3.791,0,0,1,149.91,71.124Zm6.839,40.222h-6.162V79.992h6.162Z" transform="translate(-24.709 -11.104)" fill="#fff"/>
    <path id="Path_14379" data-name="Path 14379" d="M166.8,82.377h6.162v3.14a12.917,12.917,0,0,1,9.427-3.758c7.206,0,12.258,5.01,12.258,12.258v19.714h-6.162V95.069c0-4.927-3.023-7.949-7.766-7.949a8.859,8.859,0,0,0-7.757,4.066v22.545H166.8Z" transform="translate(-27.496 -13.489)" fill="#fff"/>
    <path id="Path_14380" data-name="Path 14380" d="M208.628,68.143l6.154-1.353v26.9L230,79.908h7.206L221.07,94.629l17.009,16.633h-8.133l-15.164-14.78v14.78H208.62Z" transform="translate(-34.396 -11.02)" fill="#fff"/>
    <path id="Path_14381" data-name="Path 14381" d="M108.243,74.55a4.626,4.626,0,0,0-2.772-.392,26.978,26.978,0,0,0-8.225,3.064,20.384,20.384,0,0,1-6.1,2.371,57.03,57.03,0,0,1-8.542.267H62.952A16.7,16.7,0,0,0,47.087,101.9h4.342a9.085,9.085,0,0,0,3.657-.777,8.96,8.96,0,0,1-1.236-4.559,9.11,9.11,0,0,1,9.1-9.1H82.491a62.4,62.4,0,0,0,9.7-.359,26.622,26.622,0,0,0,8.509-3.123l.209-.109-.109.276-.493,1.211c-1.486,3.7-.969,6.313-.426,9.076l.117.626a8.918,8.918,0,0,1-1.077,6.087,9.243,9.243,0,0,1-6.346,4.359,9.735,9.735,0,0,1-1.4.125h-17.4a16.775,16.775,0,0,1-6.029,7.632h23.38a16.742,16.742,0,0,0,16.7-16.7,4.008,4.008,0,0,0-.067-.71,15.969,15.969,0,0,0-.267-2.188l-.125-.668c-.451-2.3-.626-3.165,0-4.776l.459-1.152a63,63,0,0,0,2.605-7.256,4.451,4.451,0,0,0-2.188-5.26Z" transform="translate(-7.599 -12.225)" fill="#d2e9f6"/>
    <path id="Path_14382" data-name="Path 14382" d="M64.332,96.523a16.149,16.149,0,0,0-.9-4.175H54.922a9.018,9.018,0,0,1,1.854,5.394,7.735,7.735,0,0,1-.092.835,9.076,9.076,0,0,1-9,8.308H28.135a62.424,62.424,0,0,0-9.7.359,26.5,26.5,0,0,0-8.5,2.981l-.209.109a2.082,2.082,0,0,1,.092-.242l.484-1.2c1.486-3.707.969-6.313.434-9.076l-.125-.635a8.976,8.976,0,0,1,1.077-6.054,9.26,9.26,0,0,1,6.346-4.359l.668-.084H36.911A16.784,16.784,0,0,1,43.106,81H19.467a16.7,16.7,0,0,0-16.7,16.7,4.008,4.008,0,0,0,.058.71,16.257,16.257,0,0,0,.267,2.2l.125.668c.451,2.3.626,3.156,0,4.776l-.468,1.169A63.109,63.109,0,0,0,.162,114.45a4.434,4.434,0,0,0,2.188,5.219,4.392,4.392,0,0,0,2,.468,5.012,5.012,0,0,0,.835-.067,26.721,26.721,0,0,0,8.175-3.023,20.574,20.574,0,0,1,6.1-2.363,56.965,56.965,0,0,1,8.567-.284H47.682a16.742,16.742,0,0,0,16.7-16.7A9.523,9.523,0,0,0,64.332,96.523Z" transform="translate(0.03 -13.365)" fill="#fff"/>
  </g>
</svg>
