<svg xmlns="http://www.w3.org/2000/svg" width="49.453" height="34.698" viewBox="0 0 49.453 34.698">
  <g id="quote" transform="translate(0.75 0.75)">
    <path id="Rectangle_2032" data-name="Rectangle 2032" d="M0,0H14.288a6,6,0,0,1,6,6V20.287a0,0,0,0,1,0,0H0a0,0,0,0,1,0,0V0A0,0,0,0,1,0,0Z" transform="translate(0 12.911)" fill="none" stroke="#2f7879" stroke-width="1.5"/>
    <path id="Rectangle_2033" data-name="Rectangle 2033" d="M0,0H14.288a6,6,0,0,1,6,6V20.287a0,0,0,0,1,0,0H0a0,0,0,0,1,0,0V0A0,0,0,0,1,0,0Z" transform="translate(27.665 12.911)" fill="none" stroke="#2f7879" stroke-width="1.5"/>
    <path id="Path_14412" data-name="Path 14412" d="M792.663,316.45c-.3-.022-.612-.035-.922-.035A11.989,11.989,0,0,0,779.753,328.4v2.761" transform="translate(-752.088 -316.415)" fill="none" stroke="#2f7879" stroke-width="1.5"/>
    <path id="Path_14413" data-name="Path 14413" d="M777.663,316.45c-.3-.022-.612-.035-.922-.035A11.989,11.989,0,0,0,764.753,328.4v2.761" transform="translate(-764.752 -316.415)" fill="none" stroke="#2f7879" stroke-width="1.5"/>
  </g>
</svg>
